<?xml version="1.0" encoding="UTF-8" standalone="no"?>
<!-- Created with Inkscape (http://www.inkscape.org/) -->

<svg
   width="119.98854mm"
   height="51.223331mm"
   viewBox="0 0 119.98854 51.223331"
   version="1.1"
   id="svg2646"
   inkscape:version="1.2.2 (b0a8486541, 2022-12-01)"
   sodipodi:docname="vercel.svg"
   xmlns:inkscape="http://www.inkscape.org/namespaces/inkscape"
   xmlns:sodipodi="http://sodipodi.sourceforge.net/DTD/sodipodi-0.dtd"
   xmlns="http://www.w3.org/2000/svg"
   xmlns:svg="http://www.w3.org/2000/svg">
  <sodipodi:namedview
     id="namedview2648"
     pagecolor="#ffffff"
     bordercolor="#000000"
     borderopacity="0.25"
     inkscape:showpageshadow="2"
     inkscape:pageopacity="0.0"
     inkscape:pagecheckerboard="0"
     inkscape:deskcolor="#d1d1d1"
     inkscape:document-units="mm"
     showgrid="false"
     inkscape:zoom="1.6832734"
     inkscape:cx="180.60049"
     inkscape:cy="177.33305"
     inkscape:window-width="1920"
     inkscape:window-height="999"
     inkscape:window-x="0"
     inkscape:window-y="44"
     inkscape:window-maximized="1"
     inkscape:current-layer="g116" />
  <defs
     id="defs2643" />
  <g
     inkscape:label="Calque 1"
     inkscape:groupmode="layer"
     id="layer1"
     transform="translate(-46.869591,-91.108545)">
    <g
       id="g3347"
       transform="translate(181.47962,46.486953)">
      <g
         id="g126"
         transform="matrix(0.26458333,0,0,0.26458333,-183.95482,2.1295094)">
        <g
           id="g116">
          <path
             class="st1"
             d="m 193.7,313.2 v 32.7 h -7.2 v -32.7 z"
             id="path8"
             style="fill:#010202" />
          <path
             class="st1"
             d="m 209.8,313.2 7.6,22.5 h 0.1 l 7.2,-22.5 h 10.1 v 32.7 h -6.7 V 322.7 H 228 l -8,23.2 h -5.5 l -8,-22.9 h -0.1 v 22.9 h -6.7 v -32.7 z"
             id="path10"
             style="fill:#010202" />
          <path
             class="st1"
             d="m 238.1,319.3 v -6 h 26.8 v 6 H 255 v 26.6 h -7.2 v -26.6 z"
             id="path12"
             style="fill:#010202" />
          <path
             class="st1"
             d="m 297.6,313.2 12.2,32.7 h -7.5 l -2.5,-7.3 h -12.2 l -2.6,7.3 h -7.2 l 12.4,-32.7 z m 0.4,20.1 -4.1,-12 h -0.1 l -4.3,12 z"
             id="path14"
             style="fill:#010202" />
          <path
             class="st1"
             d="m 323.9,322.2 v 4.3 h -4.8 v 11.7 c 0,1.1 0.2,1.8 0.5,2.2 0.3,0.4 1.1,0.5 2.2,0.5 0.4,0 0.7,0 1.1,0 0.3,0 0.7,-0.1 1,-0.1 v 5 c -0.5,0.1 -1.2,0.2 -1.8,0.2 -0.7,0 -1.3,0 -2,0 -1,0 -2,-0.1 -2.9,-0.2 -0.9,-0.1 -1.7,-0.4 -2.4,-0.8 -0.7,-0.4 -1.2,-1 -1.6,-1.7 -0.4,-0.7 -0.6,-1.7 -0.6,-2.9 v -14 h -3.9 v -4.3 h 3.9 V 315 h 6.5 v 7.1 h 4.8 z"
             id="path16"
             style="fill:#010202" />
          <path
             class="st1"
             d="m 333.8,313.2 v 32.7 h -6.5 v -32.7 z"
             id="path18"
             style="fill:#010202" />
          <path
             class="st1"
             d="m 338.5,329.5 c 0.1,-1.5 0.5,-2.8 1.1,-3.8 0.7,-1 1.5,-1.8 2.6,-2.4 1,-0.6 2.2,-1 3.5,-1.3 1.3,-0.3 2.6,-0.4 3.9,-0.4 1.2,0 2.4,0.1 3.6,0.3 1.2,0.2 2.3,0.5 3.3,1 1,0.5 1.8,1.2 2.5,2 0.7,0.8 1,2 1,3.5 v 12.3 c 0,1.1 0.1,2.1 0.2,3.1 0.1,1 0.3,1.7 0.6,2.2 h -6.6 c -0.1,-0.4 -0.2,-0.7 -0.3,-1.1 -0.1,-0.4 -0.1,-0.8 -0.2,-1.2 -1,1.1 -2.3,1.8 -3.7,2.2 -1.4,0.4 -2.8,0.6 -4.3,0.6 -1.1,0 -2.2,-0.1 -3.2,-0.4 -1,-0.3 -1.8,-0.7 -2.6,-1.3 -0.7,-0.6 -1.3,-1.3 -1.7,-2.2 -0.4,-0.9 -0.6,-1.9 -0.6,-3.2 0,-1.3 0.2,-2.4 0.7,-3.3 0.5,-0.9 1.1,-1.6 1.8,-2.1 0.7,-0.5 1.6,-0.9 2.6,-1.2 1,-0.3 1.9,-0.5 2.9,-0.6 1,-0.2 1.9,-0.3 2.9,-0.4 0.9,-0.1 1.8,-0.2 2.5,-0.4 0.7,-0.2 1.3,-0.5 1.7,-0.8 0.4,-0.4 0.6,-0.9 0.6,-1.5 0,-0.7 -0.1,-1.3 -0.3,-1.7 -0.2,-0.4 -0.5,-0.7 -0.9,-1 -0.4,-0.2 -0.8,-0.4 -1.3,-0.5 -0.5,-0.1 -1,-0.1 -1.6,-0.1 -1.3,0 -2.3,0.3 -3,0.8 -0.7,0.5 -1.2,1.5 -1.3,2.7 h -6.4 z m 15.1,4.8 c -0.3,0.2 -0.6,0.4 -1,0.6 -0.4,0.1 -0.9,0.3 -1.3,0.3 -0.5,0.1 -1,0.2 -1.5,0.2 -0.5,0.1 -1,0.1 -1.6,0.2 -0.5,0.1 -1,0.2 -1.4,0.4 -0.5,0.2 -0.9,0.4 -1.2,0.6 -0.4,0.3 -0.6,0.6 -0.8,1 -0.2,0.4 -0.3,0.9 -0.3,1.5 0,0.6 0.1,1.1 0.3,1.5 0.2,0.4 0.5,0.7 0.9,0.9 0.4,0.2 0.8,0.4 1.3,0.5 0.5,0.1 1,0.1 1.5,0.1 1.3,0 2.3,-0.2 3,-0.6 0.7,-0.4 1.2,-0.9 1.6,-1.5 0.3,-0.6 0.5,-1.2 0.6,-1.8 0.1,-0.6 0.1,-1.1 0.1,-1.5 v -2.4 z"
             id="path20"
             style="fill:#010202" />
          <path
             class="st1"
             d="m 371.2,322.2 v 3.3 h 0.1 c 0.8,-1.4 1.9,-2.4 3.2,-3 1.3,-0.6 2.7,-0.9 4,-0.9 1.7,0 3.2,0.2 4.3,0.7 1.1,0.5 2,1.1 2.6,2 0.6,0.8 1.1,1.9 1.4,3.1 0.3,1.2 0.4,2.5 0.4,4 V 346 h -6.5 v -13.4 c 0,-2 -0.3,-3.4 -0.9,-4.4 -0.6,-1 -1.7,-1.4 -3.2,-1.4 -1.8,0 -3.1,0.5 -3.8,1.6 -0.8,1.1 -1.2,2.8 -1.2,5.2 V 346 H 365 v -23.7 h 6.2 z"
             id="path22"
             style="fill:#010202" />
          <path
             class="st1"
             d="m 404.8,322.2 v 4.3 H 400 v 11.7 c 0,1.1 0.2,1.8 0.5,2.2 0.3,0.4 1.1,0.5 2.2,0.5 0.4,0 0.7,0 1.1,0 0.3,0 0.7,-0.1 1,-0.1 v 5 c -0.5,0.1 -1.2,0.2 -1.8,0.2 -0.7,0 -1.3,0 -2,0 -1,0 -2,-0.1 -2.9,-0.2 -0.9,-0.1 -1.7,-0.4 -2.4,-0.8 -0.7,-0.4 -1.2,-1 -1.6,-1.7 -0.4,-0.7 -0.6,-1.7 -0.6,-2.9 v -14 h -3.9 v -4.3 h 3.9 V 315 h 6.5 v 7.1 h 4.8 z"
             id="path24"
             style="fill:#010202" />
          <path
             class="st1"
             d="m 408.2,318.6 v -5.4 h 6.5 v 5.4 z m 6.5,3.6 v 23.7 h -6.5 v -23.7 z"
             id="path26"
             style="fill:#010202" />
          <path
             class="st1"
             d="m 436.3,354.2 v -11.3 h -0.1 c -0.8,1.3 -1.8,2.2 -3.2,2.7 -1.4,0.5 -2.8,0.8 -4.3,0.8 -1.1,0 -2.2,-0.2 -3.4,-0.6 -1.2,-0.4 -2.2,-1.1 -3.2,-2.1 -1,-1 -1.8,-2.2 -2.4,-3.8 -0.6,-1.6 -1,-3.5 -1,-5.8 0,-1.6 0.2,-3.2 0.6,-4.7 0.4,-1.5 1.1,-2.9 2,-4.1 0.9,-1.2 2,-2.1 3.3,-2.8 1.3,-0.7 2.9,-1.1 4.7,-1.1 1.5,0 2.8,0.3 4.1,0.8 1.3,0.6 2.3,1.5 3,2.8 h 0.1 v -3 h 6.2 v 31.9 h -6.4 z m -10.8,-17.3 c 0.2,0.9 0.5,1.7 0.9,2.4 0.4,0.7 1,1.3 1.7,1.7 0.7,0.4 1.6,0.6 2.7,0.6 1.1,0 2,-0.2 2.7,-0.6 0.7,-0.4 1.3,-1 1.7,-1.6 0.4,-0.6 0.8,-1.5 1,-2.4 0.2,-0.9 0.3,-1.8 0.3,-2.8 0,-0.9 -0.1,-1.8 -0.3,-2.7 -0.2,-0.9 -0.5,-1.7 -0.9,-2.5 -0.4,-0.7 -1,-1.3 -1.7,-1.8 -0.7,-0.5 -1.6,-0.7 -2.6,-0.7 -1.1,0 -2,0.2 -2.7,0.6 -0.7,0.4 -1.3,1 -1.8,1.7 -0.5,0.7 -0.8,1.5 -1,2.4 -0.2,0.9 -0.3,1.8 -0.3,2.8 0,1 0.1,2 0.3,2.9 z"
             id="path28"
             style="fill:#010202" />
          <path
             class="st1"
             d="m 463.6,345.9 v -3.3 h -0.1 c -0.8,1.4 -1.9,2.4 -3.2,3 -1.3,0.6 -2.7,0.9 -4,0.9 -1.7,0 -3.2,-0.2 -4.3,-0.7 -1.1,-0.5 -2,-1.1 -2.6,-1.9 -0.6,-0.8 -1.1,-1.9 -1.4,-3.1 -0.3,-1.2 -0.4,-2.5 -0.4,-4 v -14.6 h 6.5 v 13.4 c 0,2 0.3,3.4 0.9,4.4 0.6,1 1.7,1.4 3.2,1.4 1.8,0 3.1,-0.5 3.8,-1.6 0.8,-1.1 1.2,-2.8 1.2,-5.2 v -12.4 h 6.5 v 23.7 z"
             id="path30"
             style="fill:#010202" />
          <path
             class="st1"
             d="m 481.7,340.2 c 1,0.9 2.4,1.4 4.2,1.4 1.3,0 2.4,-0.3 3.4,-1 0.9,-0.7 1.5,-1.4 1.7,-2.1 h 5.7 c -0.9,2.8 -2.3,4.9 -4.2,6.1 -1.9,1.2 -4.2,1.8 -6.9,1.8 -1.9,0 -3.5,-0.3 -5,-0.9 -1.5,-0.6 -2.8,-1.4 -3.8,-2.5 -1,-1.1 -1.8,-2.4 -2.4,-3.9 -0.6,-1.5 -0.8,-3.2 -0.8,-5 0,-1.8 0.3,-3.4 0.9,-4.9 0.6,-1.5 1.4,-2.8 2.5,-4 1.1,-1.1 2.3,-2 3.8,-2.6 1.5,-0.6 3.1,-1 4.9,-1 2,0 3.8,0.4 5.3,1.2 1.5,0.8 2.7,1.8 3.7,3.1 1,1.3 1.7,2.8 2.1,4.5 0.4,1.7 0.6,3.4 0.5,5.3 h -17.1 c -0.1,2 0.5,3.6 1.5,4.5 z m 7.3,-12.4 c -0.8,-0.9 -2,-1.3 -3.5,-1.3 -1,0 -1.9,0.2 -2.6,0.5 -0.7,0.4 -1.2,0.8 -1.6,1.3 -0.4,0.5 -0.7,1.1 -0.9,1.6 -0.2,0.6 -0.3,1.1 -0.3,1.6 h 10.6 c -0.4,-1.6 -0.9,-2.9 -1.7,-3.7 z"
             id="path32"
             style="fill:#010202" />
        </g>
      </g>
      <g
         id="g136"
         transform="matrix(0.26458333,0,0,0.26458333,-183.95482,2.1295094)">
        <g
           id="g134">
          <polygon
             class="st2"
             points="186.5,160.6 316.1,160.6 186.5,290.2 "
             id="polygon128"
             style="fill:#00b8de" />
          <polygon
             class="st2"
             points="316.1,290.2 316.1,160.6 380.9,225.4 445.7,160.6 445.7,290.2 "
             id="polygon130"
             style="fill:#00b8de" />
          <polygon
             class="st2"
             points="445.7,225.4 510.5,160.6 640,160.6 510.5,290.2 510.5,225.4 "
             id="polygon132"
             style="fill:#00b8de" />
        </g>
      </g>
    </g>
  </g>
</svg>
